<?xml version="1.0" encoding="utf-8"?>
<!-- Generator: Adobe Illustrator 19.1.0, SVG Export Plug-In . SVG Version: 6.00 Build 0)  -->
<svg version="1.1" xmlns="http://www.w3.org/2000/svg" xmlns:xlink="http://www.w3.org/1999/xlink" x="0px" y="0px"
	 viewBox="72 31.5 300 200" style="enable-background:new 72 31.5 300 200;" xml:space="preserve">
<style type="text/css">
	
	 @keyframes tremble {
        0% { transform: translate3d(0px, 0px, 0px); animation-timing-function: ease-in;}
        33% { transform: translate3d(.3px, 0px, 0px); animation-timing-function: ease-in-out;}
        66% {transform: translate3d(0px, 0px, 0px); animation-timing-function: ease-in-out;}
        100% { transform: translate3d(-.3px, 0px, 0px);animation-timing-function: ease-in ;}
      }

        #HIGHLIGHT {
          animation: tremble ;
          
          
          animation-duration: .1s;
          transform-origin: 50% 50%;
          -webkit-animation-iteration-count: infinite; 
          
        }

	

    @-webkit-keyframes blush {
          0% {opacity: 1.0; }
          50% {opacity: .7; }
          100% {opacity: 1.0; }
            }
    #BLUSH{
    -webkit-animation: blush 1s ease-in-out ;
    -webkit-animation-iteration-count: infinite; 
      }




	.st0{fill:#FFFFFF;stroke:#FFFFFF;}
	.st1{fill:#231F20;fill-opacity:0;}
	.st2{fill:#73B3FF;}
	.st3{fill:#A1D0FF;}
	.st4{fill:url(#SVGID_1_);}
	.st5{fill:#003866;}
	.st6{fill:url(#SVGID_2_);}
	.st7{opacity:0.23;}
	.st8{fill:#D16692;}
	.st9{fill:#FFFFFF;}
	.st10{fill:#231F20;}
	.st11{opacity:0.27;fill:#231F20;}
	.st12{opacity:0.59;}
	.st13{fill:#D2F9FF;}
	.st14{fill:#F3FAFF;}
</style>
<g id="kalidescope">
	<path class="st0" d="M158,75c-1.1,8.4-1.8,21.7,2.5,36.9c2.3,8.1,5.4,14.8,8.3,20c13.6,3.9,35.3,8.1,61.6,5.1
		c16.3-1.9,29.8-6.1,39.9-10.1c19.9-21.1,17.3-32.6,16.2-35.9c-6.7-19.7-52.2-20.4-76-20.7C188.4,69.9,170.1,72.6,158,75z"/>
	<path id="eyelid_1_" class="st1" d="M271.7,125.9c-12.1,3.9-22.3,6.5-30,8.2c-12.9,2.9-19.4,4.3-27.8,4.3
		c-9.6,0.1-17.6-1.4-28.4-3.5c-7.4-1.4-13.4-2.9-17.7-4c-3.2-5.8-7.2-14.6-9.3-26c-2.3-12.6-1.4-23.2-0.3-30.1
		c13.5-2.9,33.2-6,57.1-5.2c20.9,0.7,67,2.4,73,22.3C289.2,95.1,291.4,106.3,271.7,125.9z	">
		
	</path>
	<path class="st2" d="M187.5,76.9c-1.4,7.8-1.7,14.5-1.7,19.5c0.1,11.7,2.1,20.4,2.6,22.4c1.7,6.9,3.9,12.4,5.7,16.4
		c5.6,1.4,13.4,2.8,22.7,2.3c9.1-0.4,16.6-2.4,22.1-4.3c2.7-5.5,6.3-14.4,7.8-26.2c1.7-13.7-0.5-24.9-2.1-31.3
		c-8.2,0.3-16.5,0.6-24.9,0.7C208.8,76.7,198,76.8,187.5,76.9z"/>
	<path class="st3" d="M192.6,106.3c1.1,4,3.5,10.6,8.9,16.9c3.9,4.6,8.1,9.4,13.8,9.5c7.1,0.1,12.2-7.3,15-11.3
		c4.8-6.9,6-13.9,6.3-17.6c-3.5,8.6-11.5,14.6-20.8,15.3C206.3,119.8,197.2,114.8,192.6,106.3z"/>
	<linearGradient id="SVGID_1_" gradientUnits="userSpaceOnUse" x1="214.6241" y1="115.9984" x2="214.6241" y2="70.3222">
		<stop  offset="0" style="stop-color:#73B3FF"/>
		<stop  offset="1" style="stop-color:#6875FF"/>
	</linearGradient>
	<path class="st4" d="M193.4,84.6c-3.6,8.2-0.9,15.9-0.5,16.9c0.3,0.7,4,10.3,13.9,13.5c10.7,3.5,23.1-2.2,28.3-12.2
		c3.9-7.6,3.9-18.4-2.5-25.6c-5.8-6.5-14.1-6.8-15.8-6.8C207.3,70,197.5,75.3,193.4,84.6z"/>
	<path class="st5" d="M192.2,102.6c3,9.9,12.4,16.6,22.7,16.2c10.5-0.4,19.4-8,21.5-18.3c-2.5,9.9-11.3,17-21.5,17.4
		C204.9,118.4,195.6,112.2,192.2,102.6z"/>
</g>
<g id="BLUSH">
	
		<radialGradient id="SVGID_2_" cx="70.4347" cy="108.2319" r="34.435" gradientTransform="matrix(1.6671 0 0 0.8161 99.2789 74.5658)" gradientUnits="userSpaceOnUse">
		<stop  offset="0.1023" style="stop-color:#FFA5BF"/>
		<stop  offset="0.5921" style="stop-color:#FFFFFF;stop-opacity:0.6"/>
	</radialGradient>
	<path class="st6" d="M154.3,150.1c-9,5.8-8.9,14.6-2.8,20.7c13.6,13.6,56.1,12.7,67.8,12.5c13.7-0.3,49.5-1,62.2-13.7
		c8.1-8,5.8-19.7-7.6-25c-6.6-2.6-13.4-2.7-42.3-1.7C165.3,145.3,158.8,147.2,154.3,150.1z"/>
	<g class="st7">
		<path class="st8" d="M216.6,155.9c0,0-0.1,0.2-0.4,0.6c-0.2,0.4-0.6,1-1,1.7c-0.9,1.4-2.1,3.1-3.3,4.8c-1.3,1.7-2.6,3.4-3.7,4.6
			c-0.5,0.6-1,1.1-1.3,1.4c-0.3,0.3-0.5,0.5-0.5,0.5s0.1-0.2,0.4-0.6c0.2-0.4,0.6-1,1-1.7c0.9-1.4,2.1-3.1,3.3-4.8
			c1.3-1.7,2.6-3.4,3.7-4.6c0.5-0.6,1-1.1,1.3-1.4C216.4,156,216.6,155.9,216.6,155.9z"/>
	</g>
	<g class="st7">
		<path class="st8" d="M241.7,156.9c0,0-0.1,0.2-0.4,0.6c-0.2,0.4-0.6,1-1,1.7c-0.9,1.4-2.1,3.1-3.3,4.8c-1.3,1.7-2.6,3.4-3.7,4.6
			c-0.5,0.6-1,1.1-1.3,1.4c-0.3,0.3-0.5,0.5-0.5,0.5s0.1-0.2,0.4-0.6c0.2-0.4,0.6-1,1-1.7c0.9-1.4,2.1-3.1,3.3-4.8
			c1.3-1.7,2.6-3.4,3.7-4.6c0.5-0.6,1-1.1,1.3-1.4C241.5,157.1,241.7,156.9,241.7,156.9z"/>
	</g>
	<g class="st7">
		<path class="st8" d="M222.2,156c0,0-0.2,0.3-0.5,0.8c-0.3,0.5-0.7,1.3-1.3,2.1c-1.1,1.7-2.6,4-4.1,6.2c-1.6,2.2-3.2,4.4-4.5,6
			c-0.6,0.8-1.2,1.4-1.6,1.9c-0.4,0.5-0.6,0.7-0.6,0.7s0.2-0.3,0.5-0.8c0.3-0.5,0.7-1.3,1.3-2.1c1.1-1.7,2.6-4,4.1-6.2
			c1.6-2.2,3.2-4.4,4.5-6c0.6-0.8,1.2-1.4,1.6-1.9C222,156.3,222.2,156,222.2,156z"/>
	</g>
	<g class="st7">
		<path class="st8" d="M231.8,153.2c0,0-0.2,0.3-0.6,0.7c-0.4,0.4-0.9,1.1-1.6,1.8c-1.3,1.5-3.2,3.4-5.1,5.2
			c-1.9,1.8-3.8,3.6-5.4,4.9c-0.7,0.6-1.4,1.2-1.8,1.5c-0.5,0.4-0.7,0.6-0.7,0.6s0.2-0.3,0.6-0.7c0.4-0.4,0.9-1.1,1.6-1.8
			c1.3-1.5,3.2-3.4,5.1-5.2c1.9-1.8,3.8-3.6,5.4-4.9c0.7-0.6,1.4-1.2,1.8-1.5C231.6,153.4,231.8,153.2,231.8,153.2z"/>
	</g>
	<g class="st7">
		<path class="st8" d="M207.3,153.2c0,0-0.2,0.3-0.6,0.7c-0.4,0.4-0.9,1.1-1.6,1.8c-1.3,1.5-3.2,3.4-5.1,5.2
			c-1.9,1.8-3.8,3.6-5.4,4.9c-0.7,0.6-1.4,1.2-1.8,1.5c-0.5,0.4-0.7,0.6-0.7,0.6s0.2-0.3,0.6-0.7c0.4-0.4,0.9-1.1,1.6-1.8
			c1.3-1.5,3.2-3.4,5.1-5.2c1.9-1.8,3.8-3.6,5.4-4.9c0.7-0.6,1.4-1.2,1.8-1.5C207.1,153.4,207.3,153.2,207.3,153.2z"/>
	</g>
	<g class="st7">
		<path class="st8" d="M202.5,151.8c0,0-0.2,0.3-0.6,0.7c-0.4,0.4-0.9,1.1-1.6,1.8c-1.3,1.5-3.2,3.4-5.1,5.2
			c-1.9,1.8-3.8,3.6-5.4,4.9c-0.7,0.6-1.4,1.2-1.8,1.5c-0.5,0.4-0.7,0.6-0.7,0.6s0.2-0.3,0.6-0.7c0.4-0.4,0.9-1.1,1.6-1.8
			c1.3-1.5,3.2-3.4,5.1-5.2c1.9-1.8,3.8-3.6,5.4-4.9c0.7-0.6,1.4-1.2,1.8-1.5C202.2,152,202.5,151.8,202.5,151.8z"/>
	</g>
	<g class="st7">
		<path class="st8" d="M237.6,156.9c0,0-0.1,0.2-0.3,0.6c-0.2,0.3-0.6,0.9-1,1.4c-0.8,1.2-2,2.7-3.2,4.1c-1.2,1.4-2.5,2.8-3.5,3.9
			c-0.5,0.5-1,0.9-1.3,1.2c-0.3,0.3-0.5,0.4-0.5,0.4s0.1-0.2,0.3-0.6c0.2-0.3,0.6-0.9,1-1.4c0.8-1.2,2-2.7,3.2-4.1
			c1.2-1.4,2.5-2.8,3.5-3.9c0.5-0.5,1-0.9,1.3-1.2C237.5,157.1,237.6,156.9,237.6,156.9z"/>
	</g>
	<g class="st7">
		<path class="st8" d="M247.3,160.1c0,0-0.1,0.2-0.3,0.6c-0.2,0.3-0.6,0.9-1,1.4c-0.8,1.2-2,2.7-3.2,4.1c-1.2,1.4-2.5,2.8-3.5,3.9
			c-0.5,0.5-1,0.9-1.3,1.2c-0.3,0.3-0.5,0.4-0.5,0.4s0.1-0.2,0.3-0.6c0.2-0.3,0.6-0.9,1-1.4c0.8-1.2,2-2.7,3.2-4.1
			c1.2-1.4,2.5-2.8,3.5-3.9c0.5-0.5,1-0.9,1.3-1.2C247.1,160.2,247.3,160.1,247.3,160.1z"/>
	</g>
	<g class="st7">
		<path class="st8" d="M206.3,160.1c0,0-0.1,0.2-0.3,0.6c-0.2,0.3-0.6,0.9-1,1.4c-0.8,1.2-2,2.7-3.2,4.1c-1.2,1.4-2.5,2.8-3.5,3.9
			c-0.5,0.5-1,0.9-1.3,1.2c-0.3,0.3-0.5,0.4-0.5,0.4s0.1-0.2,0.3-0.6c0.2-0.3,0.6-0.9,1-1.4c0.8-1.2,2-2.7,3.2-4.1
			c1.2-1.4,2.5-2.8,3.5-3.9c0.5-0.5,1-0.9,1.3-1.2C206.1,160.2,206.3,160.1,206.3,160.1z"/>
	</g>
	<g class="st7">
		<path class="st8" d="M232.9,159.1c0,0-0.1,0.2-0.4,0.6c-0.2,0.4-0.6,1-1,1.6c-0.8,1.3-2,3.1-3.3,4.7c-1.3,1.7-2.6,3.3-3.6,4.5
			c-0.5,0.6-1,1.1-1.3,1.4c-0.3,0.3-0.5,0.5-0.5,0.5s0.1-0.2,0.4-0.6c0.2-0.4,0.6-1,1-1.6c0.8-1.3,2-3.1,3.3-4.7
			c1.3-1.7,2.6-3.3,3.6-4.5c0.5-0.6,1-1.1,1.3-1.4C232.7,159.3,232.9,159.1,232.9,159.1z"/>
	</g>
	<g class="st7">
		<path class="st8" d="M211.4,156.2c0,0-0.1,0.2-0.4,0.6c-0.2,0.4-0.6,1-1,1.6c-0.8,1.3-2,3.1-3.3,4.7c-1.3,1.7-2.6,3.3-3.6,4.5
			c-0.5,0.6-1,1.1-1.3,1.4c-0.3,0.3-0.5,0.5-0.5,0.5s0.1-0.2,0.4-0.6c0.2-0.4,0.6-1,1-1.6c0.8-1.3,2-3.1,3.3-4.7
			c1.3-1.7,2.6-3.3,3.6-4.5c0.5-0.6,1-1.1,1.3-1.4C211.2,156.4,211.4,156.2,211.4,156.2z"/>
	</g>
</g>
<g id="HIGHLIGHT">
	<path class="st9" d="M183.9,94.7c0.5,1.4,2,2,9.7,3.6c6.7,1.4,9.5,1.8,13,0.8c1.7-0.5,2.8-0.8,3-1.7c0.6-1.9-4.1-4.2-11.9-9.9
		c-7.5-5.5-10.3-8.7-11.9-7.7c-1.4,0.9,0.4,3.9-1.1,10.2C184.1,92.8,183.5,93.5,183.9,94.7z"/>
	<path class="st9" d="M190.2,101.1c0.8-1,2.5-0.5,7.8,0.4c4.5,0.7,5.6,0.8,5.6,1c0,0.4-2.7,0.3-9.2,1.4c-2,0.3-3.6,0.6-4.3-0.2
		C189.6,103.1,189.6,101.8,190.2,101.1z"/>
	<path class="st9" d="M242.8,121.5c-1.9,1.2-6.5-3.2-7.7-4.4c-1.9-1.9-5-5.3-4.5-5.9c0.5-0.6,3.2,2.5,9.7,5.7c1.2,0.6,3.2,1.5,3.3,3
		C243.6,120.5,243.3,121.2,242.8,121.5z"/>
	<path class="st9" d="M238.6,129.8c-1.4,0.2-2.7-1.3-7-7.8c-4.1-6.1-6.1-9.1-5.7-9.4c0.7-0.6,3.9,4.4,11.8,9.3c1.6,1,3.6,2.1,3.7,4
		C241.5,127.5,240.2,129.6,238.6,129.8z"/>
	<path class="st9" d="M213.7,96.5c-1.3,0.9-1.3,2.7-0.9,3.8c0.1,0.2,0.6,1.5,1.9,1.8c0.1,0,1.1,0.2,1.9-0.4c1.4-1,2-3.8,0.5-5.1
		C216.3,95.8,214.8,95.7,213.7,96.5z"/>
	<path class="st9" d="M245.1,82.9c-2.5-0.7-4.2,1.5-10.2,5.8c-7.7,5.5-14,8.4-13.5,9.4c0.1,0.2,0.3,0.2,0.5,0.3
		c3.4,0.5,26.8-1.4,27.4-9.6C249.5,86.3,247.4,83.5,245.1,82.9z"/>
	<path class="st9" d="M231.4,86.9c-0.6-0.2-1.2,0.2-2.9,1.8c-1.1,1.1-3.4,3.4-3.1,3.7c0.2,0.2,1.3-0.9,4.1-2.4
		c1.8-0.9,2.8-1.2,2.9-2C232.4,87.5,231.9,87,231.4,86.9z"/>
	<path class="st9" d="M200.2,126c1-0.2,1.3-1.9,2-4.5c1.4-5.3,2.4-7.4,2.1-7.5c-0.3-0.1-1,2.6-3.8,6.7c-1.3,1.9-2.4,3.2-1.9,4.3
		C198.9,125.6,199.6,126.1,200.2,126z"/>
</g>
<g id="LASH">
	<g>
		<path class="st10" d="M248,76.3c-1.1,0-2.2,0.1-3.3,0.1c1.7,6.2,3.7,17.1,2.1,30.4c-1.4,11.5-5.1,20.2-7.8,25.6
			c-5.4,1.9-13,3.8-22.1,4.2c-9.3,0.4-17.1-0.9-22.7-2.3c-1.8-3.8-4-9.2-5.7-16c-0.5-2-2.5-10.5-2.6-21.9c0-4.9,0.3-11.4,1.7-19
			c-1.2,0-2.3,0-3.5,0c-1.6,7.8-1.9,14.5-1.9,19.6c0.1,11.8,2.4,20.5,3,22.5c1.9,6.9,4.4,12.5,6.4,16.4c6.3,1.5,15,2.8,25.4,2.4
			c10.2-0.4,18.6-2.4,24.7-4.3c3-5.5,7.1-14.5,8.7-26.3C252.2,93.9,249.9,82.6,248,76.3z"/>
		<path class="st11" d="M244.7,76.4c0,0,0-0.1,0-0.1c-8.2,0.3-16.5,0.5-24.9,0.7c-10.9,0.2-21.6,0.4-32.2,0.4c0,0,0,0,0,0
			c10.7,0,21.6-0.2,32.6-0.4C228.4,76.8,236.6,76.6,244.7,76.4z"/>
	</g>
	<path class="st10" d="M269.1,129.2c6.8-7.3,13.6-14.6,20.4-21.9c-2.4,3.8-4.8,7.7-7.2,11.5c8.5-8.8,17-17.5,25.5-26.3
		c-8.1-4.4-16.3-9-24.5-13.6c-5-2.9-10-5.7-14.9-8.6c2.1-1.1,4.2-2.2,6.3-3.3c-1.2,0.3-2.6,0.5-4.3,0.6c-2.1,0.1-3.8-0.2-5.1-0.5
		c1.5,0.1,3.8,0.1,6.3-0.7c1.4-0.4,2.6-1,3.5-1.5c-14.8,0.3-52.8,1.1-67.6,1.4c-9.4,0.2-43,0.9-52.4,1c-2.2,0.4-4.5,0.7-6.7,1.1
		c2,0.5,3.9,1,5.9,1.5c-2,0.3-4.1,0.7-6.1,1c2.2,0.4,4.3,0.8,6.5,1.1c-1.3,0.4-2.7,0.9-4,1.3c1.4,0.6,2.8,1.1,4.2,1.7
		c-1.1,0.5-2.2,1-3.3,1.5c1.2,0.6,2.4,1.1,3.6,1.7c-1.4,0.3-2.9,0.7-4.3,1c1.3,0.4,2.7,0.9,4,1.3c-1.4,0.4-2.8,0.9-4.2,1.3
		c3-0.2,7.6-0.4,13.1-0.7c4.7-0.3,7.9-0.5,13.1-0.9c0,0,5.6-0.4,18.3-1.3c15.9-1.1,48.5-1.6,60-1.7c3.4,0.9,6.9,1.8,10.3,2.8
		c6.8,3.9,13.6,7.8,20.3,11.7c-0.3,2.4-1,5.9-2.4,10c-1.6,4.6-3.4,7.5-5.5,11.2C275.5,116.7,272.5,122.2,269.1,129.2z"/>
</g>
<g id="TEARS">
	<g class="st12">
		<path class="st13" d="M188.7,140.8c-0.5-2.3-0.9-4.7-1.4-7c-1.5-7.2-1.7-7.4-1.4-8c1.9-4.2,14.9,2,32.8,0.8
			c14-0.9,23.3-5.9,26.7-1.4c0.7,0.9,0.9,3.1,1.4,7.5c0.4,3.7,0.5,6.5,0.5,7.6c0.3,12.6-0.7,23-0.7,23c-0.3,3.4-1.1,8.1-2.7,17.6
			c0,0-1.6,9.9-5.9,24c-1.4,4.7-2.6,8.2-5.2,8.7c-2.2,0.4-4.5-1.6-5.7-2.9c1.6-1,4-2.7,6.1-5.4c3-3.9,4.1-7.8,5.6-14
			c0.4-1.5,0.7-2.9,2-10.1c0.8-4.7,1.9-10.4,2.3-13c1.3-8,4.5-28.9-2.7-32.7c-3.4-1.8-5.8,2-14.8,4c-15.8,3.4-23.4-5.2-30.1-0.2
			c-4.4,3.3-4.6,9.8-5,21.3c-0.3,10.2-0.6,17.7,3.2,23c0.7,1,2.9,3.8,2,6.1c-0.4,1-1.5,2-2.4,2c-2.9-0.2-4.5-10.7-4.7-12.8
			C186.7,162.4,190.7,150.5,188.7,140.8z"/>
		<path class="st14" d="M188.7,140.8c-0.7-3.6-1.4-7.1-2.2-10.7l-0.6-2.7c-0.1-0.4-0.2-0.9-0.2-1.4c0.1-0.5,0.4-0.8,0.8-1.1
			c0.8-0.5,1.7-0.6,2.6-0.7c0.9,0,1.8,0,2.7,0.1c3.6,0.4,7.2,1.1,10.8,1.5c3.6,0.4,7.2,0.7,10.9,0.7c3.6,0,7.3-0.3,10.8-0.8
			c3.6-0.5,7.1-1.3,10.7-2c1.8-0.3,3.6-0.7,5.4-0.7c0.5,0,0.9,0,1.4,0.1c0.5,0.1,0.9,0.1,1.4,0.3l0.7,0.2c0.2,0.1,0.4,0.2,0.6,0.4
			l0.3,0.2l0.2,0.3l0.5,0.5c0.5,0.8,0.6,1.8,0.8,2.7c0.1,0.9,0.3,1.8,0.4,2.7c0.2,1.8,0.4,3.6,0.6,5.4c0.3,3.6,0.3,7.3,0.3,10.9
			c0,3.6-0.1,7.3-0.3,10.9c-0.1,1.8-0.2,3.6-0.4,5.4c-0.2,1.8-0.4,3.6-0.7,5.4c-0.5,3.6-1.1,7.2-1.7,10.8c-0.6,3.6-1.3,7.2-2.1,10.7
			c-0.8,3.5-1.7,7.1-2.7,10.6c-0.5,1.8-1,3.5-1.5,5.2c-0.5,1.7-1.1,3.5-1.9,5.2c-0.4,0.8-1,1.6-1.8,2.3c-0.4,0.3-0.9,0.6-1.4,0.7
			c-0.3,0.1-0.4,0.1-0.7,0.1c-0.3,0-0.5,0-0.8,0c-1-0.2-1.9-0.6-2.6-1.2c-0.8-0.6-1.5-1.2-2.1-1.9l-0.3-0.4l0.4-0.3
			c4.1-2.6,7.4-6.4,9.1-10.9c0.9-2.3,1.5-4.6,2.1-7c0.3-1.2,0.5-2.4,0.8-3.6l0.7-3.6l0.7-3.6c0.2-1.2,0.4-2.4,0.6-3.6l1.3-7.3
			c0.9-4.8,1.6-9.7,2-14.6c0.2-2.4,0.3-4.9,0.3-7.3c0-2.4-0.2-4.9-0.7-7.2c-0.3-1.2-0.6-2.3-1.2-3.4c-0.5-1-1.3-2-2.3-2.5
			c-0.2-0.1-0.6-0.3-0.8-0.3l-0.4-0.1c-0.1,0-0.3,0-0.4,0c-0.6,0-1.1,0.1-1.7,0.3c-1.1,0.4-2.2,0.9-3.3,1.4c-2.2,1-4.6,1.9-7,2.4
			c-1.2,0.3-2.4,0.5-3.6,0.7c-0.6,0.1-1.2,0.1-1.9,0.2c-0.6,0.1-1.2,0.1-1.9,0.1c-2.5,0.1-5-0.1-7.4-0.5c-2.4-0.4-4.8-1-7.2-1.6
			c-2.4-0.5-4.9-1-7.1-0.1c-0.3,0.1-0.6,0.2-0.8,0.3l-0.8,0.5l-0.4,0.2l-0.4,0.3c-0.2,0.2-0.5,0.4-0.7,0.6c-0.8,0.8-1.5,1.9-1.9,3
			c-0.9,2.2-1.3,4.7-1.5,7.1c-0.2,2.4-0.3,4.9-0.4,7.3c-0.2,4.9-0.5,9.8-0.2,14.7c0.2,2.4,0.5,4.9,1.3,7.2c0.4,1.1,0.9,2.3,1.6,3.3
			c0.7,1,1.5,2,2,3.1c0.5,1.1,0.8,2.5,0.3,3.7c-0.3,0.6-0.7,1.1-1.2,1.5c-0.3,0.2-0.6,0.3-0.9,0.4c-0.2,0-0.3,0-0.5,0
			c-0.1,0-0.3-0.1-0.5-0.1c-0.6-0.3-1-0.8-1.3-1.4c-0.3-0.5-0.6-1.1-0.8-1.7c-0.4-1.2-0.8-2.3-1.1-3.5c-1.1-4.8-1.6-9.7-1.7-14.6
			c-0.1-4.9,0.3-9.8,0.7-14.7C189.2,150.6,189.7,145.6,188.7,140.8z M188.7,140.8c1,4.8,0.5,9.8,0.2,14.7c-0.4,4.9-0.8,9.8-0.7,14.7
			c0.1,4.9,0.6,9.8,1.7,14.6c0.3,1.2,0.6,2.4,1.1,3.5c0.2,0.6,0.5,1.1,0.8,1.6c0.3,0.5,0.7,1,1.2,1.3c0.5,0.3,1.1,0.1,1.6-0.3
			c0.5-0.3,0.9-0.8,1.1-1.4c0.5-1.1,0.2-2.4-0.3-3.4c-0.5-1.1-1.3-2.1-2-3.1c-0.7-1-1.2-2.2-1.6-3.3c-0.8-2.3-1.2-4.8-1.3-7.3
			c-0.3-4.9,0-9.8,0.1-14.8c0.1-2.5,0.2-4.9,0.4-7.4c0.2-2.4,0.6-4.9,1.5-7.3c0.5-1.2,1.1-2.3,2-3.2c0.2-0.2,0.4-0.4,0.7-0.6
			l0.4-0.3c0.2-0.1,0.3-0.2,0.4-0.3l0.8-0.5c0.3-0.2,0.6-0.2,0.9-0.4c0.6-0.3,1.2-0.3,1.8-0.5c0.6,0,1.3-0.1,1.9-0.1
			c1.3,0.1,2.5,0.3,3.7,0.5c2.4,0.5,4.8,1.1,7.2,1.5c2.4,0.4,4.8,0.6,7.3,0.5c0.6,0,1.2-0.1,1.8-0.1c0.6-0.1,1.2-0.1,1.8-0.2
			c1.2-0.2,2.4-0.4,3.6-0.7c2.4-0.6,4.7-1.4,6.9-2.4c1.1-0.5,2.2-1.1,3.4-1.5c0.6-0.2,1.3-0.3,1.9-0.3c0.2,0,0.3,0,0.5,0l0.5,0.1
			c0.3,0.1,0.6,0.2,0.9,0.4c1.2,0.6,2,1.7,2.6,2.8c0.6,1.1,1,2.3,1.3,3.6c0.6,2.4,0.7,4.9,0.8,7.4c0,2.5-0.1,4.9-0.3,7.4
			c-0.4,4.9-1.1,9.8-2,14.6l-1.2,7.3c-0.2,1.2-0.4,2.4-0.6,3.7l-0.7,3.6l-0.7,3.6c-0.2,1.2-0.5,2.4-0.8,3.6
			c-0.6,2.4-1.2,4.8-2.1,7.1c-1.8,4.7-5.2,8.7-9.5,11.3l0.1-0.6c1.2,1.3,2.6,2.5,4.2,2.8c0.2,0,0.4,0,0.6,0c0.2,0,0.5,0,0.6-0.1
			c0.4-0.1,0.7-0.3,1.1-0.5c0.6-0.5,1.1-1.2,1.6-2c0.8-1.6,1.4-3.3,1.9-5c0.5-1.7,1-3.5,1.5-5.2c1-3.5,1.9-7,2.7-10.5
			c0.8-3.5,1.6-7.1,2.2-10.7c0.6-3.6,1.2-7.2,1.8-10.8c0.3-1.8,0.5-3.6,0.7-5.4c0.2-1.8,0.3-3.6,0.4-5.4c0.2-3.6,0.4-7.3,0.4-10.9
			c0-3.6,0-7.3-0.3-10.9c-0.1-1.8-0.4-3.6-0.6-5.4c-0.1-0.9-0.2-1.8-0.3-2.7c-0.2-0.9-0.3-1.8-0.7-2.5c-0.6-0.6-1.3-1.2-2.1-1.4
			c-0.4-0.2-0.9-0.2-1.3-0.3c-0.4,0-0.9,0-1.3-0.1c-1.8,0-3.6,0.4-5.4,0.7c-3.6,0.7-7.1,1.4-10.7,1.9c-3.6,0.5-7.2,0.8-10.9,0.7
			c-3.6,0-7.3-0.3-10.9-0.8c-3.6-0.4-7.2-1.1-10.8-1.5c-0.9-0.1-1.8-0.2-2.7-0.1c-0.9,0-1.8,0.1-2.6,0.6c-0.4,0.2-0.7,0.6-0.8,1.1
			c0,0.4,0.1,0.9,0.2,1.3l0.6,2.7C187.4,133.6,188,137.2,188.7,140.8z"/>
	</g>
</g>
</svg>
